<svg width="135" height="13" viewBox="0 0 135 13" fill="none" xmlns="http://www.w3.org/2000/svg">
<path d="M12.8331 0.432687V12.0007H10.9371V4.52869C10.9371 4.23002 10.9531 3.90735 10.9851 3.56069L7.48906 10.1287C7.32373 10.4434 7.0704 10.6007 6.72906 10.6007H6.42506C6.08373 10.6007 5.8304 10.4434 5.66506 10.1287L2.12906 3.53669C2.14506 3.71269 2.1584 3.88602 2.16906 4.05669C2.17973 4.22735 2.18506 4.38469 2.18506 4.52869V12.0007H0.289062V0.432687H1.91306C2.00906 0.432687 2.09173 0.435354 2.16106 0.440687C2.2304 0.44602 2.29173 0.459353 2.34506 0.480687C2.40373 0.50202 2.4544 0.536687 2.49706 0.584687C2.54506 0.632687 2.5904 0.696687 2.63306 0.776687L6.09706 7.20069C6.18773 7.37135 6.2704 7.54735 6.34506 7.72869C6.42506 7.91002 6.5024 8.09669 6.57706 8.28869C6.65173 8.09135 6.72906 7.90202 6.80906 7.72069C6.88906 7.53402 6.9744 7.35535 7.06506 7.18469L10.4811 0.776687C10.5237 0.696687 10.5691 0.632687 10.6171 0.584687C10.6651 0.536687 10.7157 0.50202 10.7691 0.480687C10.8277 0.459353 10.8917 0.44602 10.9611 0.440687C11.0304 0.435354 11.1131 0.432687 11.2091 0.432687H12.8331Z" fill="black"/>
<path d="M29.5261 7.63269L28.1181 3.78469C28.0487 3.61402 27.9767 3.41135 27.9021 3.17669C27.8274 2.94202 27.7527 2.68869 27.6781 2.41669C27.6087 2.68869 27.5367 2.94469 27.4621 3.18469C27.3874 3.41935 27.3154 3.62469 27.2461 3.80069L25.8461 7.63269H29.5261ZM33.3261 12.0007H31.6621C31.4754 12.0007 31.3234 11.9554 31.2061 11.8647C31.0887 11.7687 31.0007 11.6514 30.9421 11.5127L30.0781 9.15269H25.2861L24.4221 11.5127C24.3794 11.6354 24.2967 11.7474 24.1741 11.8487C24.0514 11.95 23.8994 12.0007 23.7181 12.0007H22.0381L26.5901 0.432687H28.7821L33.3261 12.0007Z" fill="black"/>
<path d="M52.2754 0.432687V12.0007H51.1714C51.0008 12.0007 50.8568 11.974 50.7394 11.9207C50.6274 11.862 50.5181 11.766 50.4114 11.6327L44.3714 3.92069C44.4034 4.27269 44.4194 4.59802 44.4194 4.89669V12.0007H42.5234V0.432687H43.6514C43.7421 0.432687 43.8194 0.43802 43.8834 0.448687C43.9528 0.45402 44.0114 0.47002 44.0594 0.496687C44.1128 0.518021 44.1634 0.552687 44.2114 0.600687C44.2594 0.643354 44.3128 0.70202 44.3714 0.776687L50.4354 8.52069C50.4194 8.33402 50.4061 8.15002 50.3954 7.96869C50.3848 7.78735 50.3794 7.61935 50.3794 7.46469V0.432687H52.2754Z" fill="black"/>
<path d="M65.0116 12.0007H62.8516V0.432687H65.0116V12.0007Z" fill="black"/>
<path d="M77.7616 2.14469V5.56869H82.0976V7.28869H77.7616V12.0007H75.6016V0.432687H82.8976V2.14469H77.7616Z" fill="black"/>
<path d="M94.8241 2.14469V5.35269H98.8721V7.00869H94.8241V10.2807H99.9601V12.0007H92.6641V0.432687H99.9601V2.14469H94.8241Z" fill="black"/>
<path d="M116.027 2.53669C115.963 2.64869 115.894 2.73135 115.819 2.78469C115.75 2.83269 115.662 2.85669 115.555 2.85669C115.443 2.85669 115.321 2.81669 115.187 2.73669C115.059 2.65135 114.905 2.55802 114.723 2.45669C114.542 2.35535 114.329 2.26469 114.083 2.18469C113.843 2.09935 113.558 2.05669 113.227 2.05669C112.929 2.05669 112.667 2.09402 112.443 2.16869C112.219 2.23802 112.03 2.33669 111.875 2.46469C111.726 2.59269 111.614 2.74735 111.539 2.92869C111.465 3.10469 111.427 3.29935 111.427 3.51269C111.427 3.78469 111.502 4.01135 111.651 4.19269C111.806 4.37402 112.009 4.52869 112.259 4.65669C112.51 4.78469 112.795 4.89935 113.115 5.00069C113.435 5.10202 113.763 5.21135 114.099 5.32869C114.435 5.44069 114.763 5.57402 115.083 5.72869C115.403 5.87802 115.689 6.07002 115.939 6.30469C116.19 6.53402 116.39 6.81669 116.539 7.15269C116.694 7.48869 116.771 7.89669 116.771 8.37669C116.771 8.89935 116.681 9.39002 116.499 9.84869C116.323 10.302 116.062 10.6994 115.715 11.0407C115.374 11.3767 114.955 11.6434 114.459 11.8407C113.963 12.0327 113.395 12.1287 112.755 12.1287C112.387 12.1287 112.025 12.0914 111.667 12.0167C111.31 11.9474 110.966 11.846 110.635 11.7127C110.31 11.5794 110.003 11.4194 109.715 11.2327C109.427 11.046 109.171 10.838 108.947 10.6087L109.579 9.57669C109.633 9.50202 109.702 9.44069 109.787 9.39269C109.873 9.33935 109.963 9.31269 110.059 9.31269C110.193 9.31269 110.337 9.36869 110.491 9.48069C110.646 9.58735 110.83 9.70735 111.043 9.84069C111.257 9.97402 111.505 10.0967 111.787 10.2087C112.075 10.3154 112.419 10.3687 112.819 10.3687C113.433 10.3687 113.907 10.2247 114.243 9.93669C114.579 9.64335 114.747 9.22469 114.747 8.68069C114.747 8.37669 114.67 8.12869 114.515 7.93669C114.366 7.74469 114.166 7.58469 113.915 7.45669C113.665 7.32335 113.379 7.21135 113.059 7.12069C112.739 7.03002 112.414 6.93135 112.083 6.82469C111.753 6.71802 111.427 6.59002 111.107 6.44069C110.787 6.29135 110.502 6.09669 110.251 5.85669C110.001 5.61669 109.798 5.31802 109.643 4.96069C109.494 4.59802 109.419 4.15269 109.419 3.62469C109.419 3.20335 109.502 2.79269 109.667 2.39269C109.838 1.99269 110.083 1.63802 110.403 1.32869C110.723 1.01935 111.118 0.771354 111.587 0.584687C112.057 0.398021 112.595 0.304688 113.203 0.304688C113.886 0.304688 114.515 0.411354 115.091 0.624687C115.667 0.83802 116.158 1.13669 116.563 1.52069L116.027 2.53669Z" fill="black"/>
<path d="M134.728 2.20069H131.24V12.0007H129.088V2.20069H125.6V0.432687H134.728V2.20069Z" fill="black"/>
</svg>
