<svg width="37" height="37" viewBox="0 0 37 37" fill="none" xmlns="http://www.w3.org/2000/svg">
<path d="M15.2216 18.1619C15.2216 16.3362 16.7021 14.8557 18.529 14.8557C20.3558 14.8557 21.8372 16.3362 21.8372 18.1619C21.8372 19.9877 20.3558 21.4682 18.529 21.4682C16.7021 21.4682 15.2216 19.9877 15.2216 18.1619ZM13.4333 18.1619C13.4333 20.9746 15.7146 23.2546 18.529 23.2546C21.3434 23.2546 23.6247 20.9746 23.6247 18.1619C23.6247 15.3493 21.3434 13.0693 18.529 13.0693C15.7146 13.0693 13.4333 15.3493 13.4333 18.1619ZM22.6356 12.8673C22.6355 13.1027 22.7053 13.3329 22.836 13.5286C22.9668 13.7244 23.1527 13.877 23.3703 13.9672C23.5879 14.0573 23.8273 14.081 24.0583 14.0352C24.2893 13.9894 24.5016 13.8761 24.6682 13.7097C24.8348 13.5433 24.9483 13.3313 24.9943 13.1005C25.0404 12.8696 25.0169 12.6303 24.9268 12.4128C24.8368 12.1953 24.6842 12.0094 24.4884 11.8785C24.2927 11.7477 24.0625 11.6778 23.8269 11.6777H23.8264C23.5107 11.6778 23.208 11.8032 22.9847 12.0263C22.7614 12.2493 22.6359 12.5518 22.6356 12.8673ZM14.5198 26.2348C13.5523 26.1908 13.0264 26.0297 12.6769 25.8936C12.2136 25.7134 11.883 25.4987 11.5354 25.1518C11.1879 24.8049 10.9727 24.4748 10.7931 24.0118C10.6569 23.6627 10.4957 23.137 10.4518 22.17C10.4036 21.1246 10.394 20.8106 10.394 18.162C10.394 15.5135 10.4044 15.2003 10.4518 14.154C10.4958 13.1871 10.6582 12.6624 10.7931 12.3123C10.9735 11.8492 11.1883 11.5188 11.5354 11.1715C11.8825 10.8241 12.2128 10.6091 12.6769 10.4296C13.0262 10.2935 13.5523 10.1324 14.5198 10.0885C15.5658 10.0404 15.8801 10.0308 18.529 10.0308C21.1779 10.0308 21.4925 10.0412 22.5394 10.0885C23.5069 10.1325 24.0319 10.2947 24.3823 10.4296C24.8456 10.6091 25.1762 10.8246 25.5237 11.1715C25.8713 11.5184 26.0857 11.8492 26.266 12.3123C26.4023 12.6614 26.5634 13.1871 26.6074 14.154C26.6555 15.2003 26.6651 15.5135 26.6651 18.162C26.6651 20.8106 26.6555 21.1237 26.6074 22.17C26.5633 23.137 26.4014 23.6625 26.266 24.0118C26.0857 24.4748 25.8708 24.8052 25.5237 25.1518C25.1766 25.4984 24.8456 25.7134 24.3823 25.8936C24.0329 26.0298 23.5069 26.1909 22.5394 26.2348C21.4933 26.2829 21.1791 26.2925 18.529 26.2925C15.8789 26.2925 15.5655 26.2829 14.5198 26.2348ZM14.4376 8.3042C13.3812 8.35228 12.6593 8.5197 12.0288 8.76487C11.3759 9.01805 10.8232 9.35771 10.2709 9.90883C9.71859 10.4599 9.3796 11.0132 9.12626 11.6657C8.88095 12.2962 8.71343 13.0172 8.66532 14.073C8.61642 15.1305 8.60522 15.4686 8.60522 18.1619C8.60522 20.8553 8.61642 21.1934 8.66532 22.2509C8.71343 23.3068 8.88095 24.0277 9.12626 24.6582C9.3796 25.3103 9.71867 25.8642 10.2709 26.4151C10.8231 26.9659 11.3759 27.3051 12.0288 27.559C12.6605 27.8042 13.3812 27.9716 14.4376 28.0197C15.4963 28.0678 15.834 28.0798 18.529 28.0798C21.224 28.0798 21.5622 28.0686 22.6204 28.0197C23.6769 27.9716 24.3983 27.8042 25.0291 27.559C25.6816 27.3051 26.2347 26.9662 26.7871 26.4151C27.3394 25.864 27.6777 25.3103 27.9317 24.6582C28.177 24.0277 28.3453 23.3067 28.3926 22.2509C28.4408 21.1926 28.452 20.8553 28.452 18.1619C28.452 15.4686 28.4408 15.1305 28.3926 14.073C28.3445 13.0171 28.177 12.2958 27.9317 11.6657C27.6777 11.0136 27.3385 10.4608 26.7871 9.90883C26.2356 9.35684 25.6816 9.01805 25.0299 8.76487C24.3983 8.5197 23.6768 8.35149 22.6211 8.3042C21.563 8.25612 21.2248 8.24414 18.5298 8.24414C15.8348 8.24414 15.4963 8.25533 14.4376 8.3042Z" fill="#0F0F0F"/>
<path d="M15.2216 18.1619C15.2216 16.3362 16.7021 14.8557 18.529 14.8557C20.3558 14.8557 21.8372 16.3362 21.8372 18.1619C21.8372 19.9877 20.3558 21.4682 18.529 21.4682C16.7021 21.4682 15.2216 19.9877 15.2216 18.1619ZM13.4333 18.1619C13.4333 20.9746 15.7146 23.2546 18.529 23.2546C21.3434 23.2546 23.6247 20.9746 23.6247 18.1619C23.6247 15.3493 21.3434 13.0693 18.529 13.0693C15.7146 13.0693 13.4333 15.3493 13.4333 18.1619ZM22.6356 12.8673C22.6355 13.1027 22.7053 13.3329 22.836 13.5286C22.9668 13.7244 23.1527 13.877 23.3703 13.9672C23.5879 14.0573 23.8273 14.081 24.0583 14.0352C24.2893 13.9894 24.5016 13.8761 24.6682 13.7097C24.8348 13.5433 24.9483 13.3313 24.9943 13.1005C25.0404 12.8696 25.0169 12.6303 24.9268 12.4128C24.8368 12.1953 24.6842 12.0094 24.4884 11.8785C24.2927 11.7477 24.0625 11.6778 23.8269 11.6777H23.8264C23.5107 11.6778 23.208 11.8032 22.9847 12.0263C22.7614 12.2493 22.6359 12.5518 22.6356 12.8673ZM14.5198 26.2348C13.5523 26.1908 13.0264 26.0297 12.6769 25.8936C12.2136 25.7134 11.883 25.4987 11.5354 25.1518C11.1879 24.8049 10.9727 24.4748 10.7931 24.0118C10.6569 23.6627 10.4957 23.137 10.4518 22.17C10.4036 21.1246 10.394 20.8106 10.394 18.162C10.394 15.5135 10.4044 15.2003 10.4518 14.154C10.4958 13.1871 10.6582 12.6624 10.7931 12.3123C10.9735 11.8492 11.1883 11.5188 11.5354 11.1715C11.8825 10.8241 12.2128 10.6091 12.6769 10.4296C13.0262 10.2935 13.5523 10.1324 14.5198 10.0885C15.5658 10.0404 15.8801 10.0308 18.529 10.0308C21.1779 10.0308 21.4925 10.0412 22.5394 10.0885C23.5069 10.1325 24.0319 10.2947 24.3823 10.4296C24.8456 10.6091 25.1762 10.8246 25.5237 11.1715C25.8713 11.5184 26.0857 11.8492 26.266 12.3123C26.4023 12.6614 26.5634 13.1871 26.6074 14.154C26.6555 15.2003 26.6651 15.5135 26.6651 18.162C26.6651 20.8106 26.6555 21.1237 26.6074 22.17C26.5633 23.137 26.4014 23.6625 26.266 24.0118C26.0857 24.4748 25.8708 24.8052 25.5237 25.1518C25.1766 25.4984 24.8456 25.7134 24.3823 25.8936C24.0329 26.0298 23.5069 26.1909 22.5394 26.2348C21.4933 26.2829 21.1791 26.2925 18.529 26.2925C15.8789 26.2925 15.5655 26.2829 14.5198 26.2348ZM14.4376 8.3042C13.3812 8.35228 12.6593 8.5197 12.0288 8.76487C11.3759 9.01805 10.8232 9.35771 10.2709 9.90883C9.71859 10.4599 9.3796 11.0132 9.12626 11.6657C8.88095 12.2962 8.71343 13.0172 8.66532 14.073C8.61642 15.1305 8.60522 15.4686 8.60522 18.1619C8.60522 20.8553 8.61642 21.1934 8.66532 22.2509C8.71343 23.3068 8.88095 24.0277 9.12626 24.6582C9.3796 25.3103 9.71867 25.8642 10.2709 26.4151C10.8231 26.9659 11.3759 27.3051 12.0288 27.559C12.6605 27.8042 13.3812 27.9716 14.4376 28.0197C15.4963 28.0678 15.834 28.0798 18.529 28.0798C21.224 28.0798 21.5622 28.0686 22.6204 28.0197C23.6769 27.9716 24.3983 27.8042 25.0291 27.559C25.6816 27.3051 26.2347 26.9662 26.7871 26.4151C27.3394 25.864 27.6777 25.3103 27.9317 24.6582C28.177 24.0277 28.3453 23.3067 28.3926 22.2509C28.4408 21.1926 28.452 20.8553 28.452 18.1619C28.452 15.4686 28.4408 15.1305 28.3926 14.073C28.3445 13.0171 28.177 12.2958 27.9317 11.6657C27.6777 11.0136 27.3385 10.4608 26.7871 9.90883C26.2356 9.35684 25.6816 9.01805 25.0299 8.76487C24.3983 8.5197 23.6768 8.35149 22.6211 8.3042C21.563 8.25612 21.2248 8.24414 18.5298 8.24414C15.8348 8.24414 15.4963 8.25533 14.4376 8.3042Z" fill="#0F0F0F"/>
</svg>
