<svg width="38" height="37" viewBox="0 0 38 37" fill="none" xmlns="http://www.w3.org/2000/svg">
<path d="M28.0821 12.3556C27.4824 12.6137 26.8518 12.7934 26.2061 12.8903C26.508 12.8386 26.9522 12.2952 27.129 12.0752C27.3977 11.7435 27.6024 11.3647 27.7328 10.9583C27.7328 10.9281 27.763 10.8849 27.7328 10.8634C27.7176 10.8551 27.7005 10.8507 27.6832 10.8507C27.6659 10.8507 27.6488 10.8551 27.6336 10.8634C26.9325 11.2431 26.1863 11.5329 25.4126 11.7259C25.3856 11.7341 25.3569 11.7349 25.3296 11.728C25.3022 11.7212 25.2773 11.707 25.2574 11.6871C25.1971 11.6154 25.1323 11.5477 25.0633 11.4844C24.7477 11.2017 24.3897 10.9703 24.0024 10.7987C23.4795 10.5842 22.9147 10.4913 22.3506 10.527C21.8033 10.5616 21.269 10.7084 20.7808 10.9583C20.3001 11.2217 19.8777 11.5797 19.5388 12.0105C19.1824 12.454 18.925 12.9687 18.7841 13.52C18.6679 14.0443 18.6547 14.5863 18.7453 15.1156C18.7453 15.2062 18.7453 15.2191 18.6676 15.2062C15.5927 14.7534 13.0698 13.6623 11.0084 11.3205C10.9178 11.217 10.8704 11.217 10.7971 11.3205C9.90005 12.6833 10.3356 14.8396 11.4569 15.9049C11.6079 16.0472 11.7631 16.1852 11.927 16.3146C11.4129 16.2781 10.9113 16.1387 10.4521 15.9049C10.3658 15.8488 10.3184 15.879 10.3141 15.9825C10.3018 16.126 10.3018 16.2703 10.3141 16.4137C10.404 17.1014 10.6751 17.7529 11.0994 18.3015C11.5237 18.8501 12.0861 19.2761 12.7291 19.5361C12.8859 19.6032 13.0492 19.6538 13.2165 19.687C12.7405 19.7807 12.2524 19.7953 11.7717 19.7302C11.6682 19.7086 11.6294 19.7647 11.6682 19.8639C12.3022 21.5889 13.6779 22.1151 14.6871 22.4083C14.8251 22.4299 14.9631 22.4299 15.1183 22.4644C15.1183 22.4644 15.1183 22.4644 15.0925 22.4903C14.7949 23.0336 13.5917 23.4002 13.0397 23.59C12.0321 23.9519 10.9578 24.0902 9.89143 23.9954C9.72323 23.9695 9.68442 23.9738 9.64129 23.9954C9.59817 24.0169 9.64129 24.0644 9.68873 24.1075C9.90436 24.2498 10.12 24.3749 10.3443 24.4956C11.0119 24.8598 11.7177 25.149 12.4488 25.3582C16.2353 26.4018 20.4962 25.6342 23.3382 22.8094C25.5722 20.5927 26.3571 17.535 26.3571 14.4731C26.3571 14.3566 26.4994 14.2876 26.5813 14.2272C27.1465 13.7869 27.6448 13.2668 28.0606 12.6833C28.1326 12.5963 28.1695 12.4856 28.1641 12.3728C28.1641 12.3081 28.1641 12.3211 28.0821 12.3556Z" fill="#0F0F0F"/>
</svg>
