<svg width="37" height="37" viewBox="0 0 37 37" fill="none" xmlns="http://www.w3.org/2000/svg">
<path fill-rule="evenodd" clip-rule="evenodd" d="M26.5472 11.3291C27.4398 11.5701 28.1413 12.2735 28.3785 13.1651C28.81 14.7831 28.81 18.1612 28.81 18.1612C28.81 18.1612 28.81 21.5393 28.3785 23.1574C28.1381 24.0523 27.4365 24.7556 26.5472 24.9934C24.9332 25.426 18.4577 25.426 18.4577 25.426C18.4577 25.426 11.9855 25.426 10.3683 24.9934C9.47567 24.7523 8.7741 24.049 8.53695 23.1574C8.10547 21.5393 8.10547 18.1612 8.10547 18.1612C8.10547 18.1612 8.10547 14.7831 8.53695 13.1651C8.77739 12.2702 9.47896 11.5668 10.3683 11.3291C11.9855 10.8965 18.4577 10.8965 18.4577 10.8965C18.4577 10.8965 24.9332 10.8965 26.5472 11.3291ZM21.7679 18.1612L16.3892 21.2752V15.0473L21.7679 18.1612Z" fill="black"/>
</svg>
